<svg width="18" height="18" viewBox="0 0 18 18" fill="none" xmlns="http://www.w3.org/2000/svg">
<g clip-path="url(#clip0_11_42)">
<path d="M7.47743 1.49549V7.47743L9.72066 5.2342L11.9639 7.47743V1.49549" stroke="white" stroke-width="1.5" stroke-linecap="round" stroke-linejoin="round"/>
<path d="M2.99097 14.581V3.36484C2.99097 2.86906 3.18792 2.39358 3.53849 2.04301C3.88906 1.69243 4.36454 1.49549 4.86032 1.49549H14.2071C14.4054 1.49549 14.5956 1.57427 14.7358 1.71449C14.8761 1.85472 14.9549 2.04491 14.9549 2.24323V15.7026C14.9549 15.9009 14.8761 16.0911 14.7358 16.2313C14.5956 16.3716 14.4054 16.4503 14.2071 16.4503H4.86032C4.36454 16.4503 3.88906 16.2534 3.53849 15.9028C3.18792 15.5522 2.99097 15.0768 2.99097 14.581ZM2.99097 14.581C2.99097 14.0852 3.18792 13.6097 3.53849 13.2591C3.88906 12.9086 4.36454 12.7116 4.86032 12.7116H14.9549" stroke="white" stroke-width="1.5" stroke-linecap="round" stroke-linejoin="round"/>
</g>
<defs>
<clipPath id="clip0_11_42">
<rect width="17.9458" height="17.9458" fill="white"/>
</clipPath>
</defs>
</svg>
