<svg width="19" height="19" viewBox="0 0 19 19" fill="none" xmlns="http://www.w3.org/2000/svg">
<path d="M8.70834 13.4583L10.2917 15.0417C10.4476 15.1976 10.6327 15.3213 10.8365 15.4057C11.0403 15.4901 11.2586 15.5335 11.4792 15.5335C11.6997 15.5335 11.9181 15.4901 12.1218 15.4057C12.3256 15.3213 12.5107 15.1976 12.6667 15.0417C12.8226 14.8857 12.9463 14.7006 13.0307 14.4968C13.1151 14.2931 13.1585 14.0747 13.1585 13.8542C13.1585 13.6336 13.1151 13.4152 13.0307 13.2115C12.9463 13.0077 12.8226 12.8226 12.6667 12.6667" stroke="white" stroke-width="1.5" stroke-linecap="round" stroke-linejoin="round"/>
<path d="M11.0833 11.0833L13.0625 13.0625C13.3774 13.3774 13.8046 13.5544 14.25 13.5544C14.6954 13.5544 15.1226 13.3774 15.4375 13.0625C15.7524 12.7476 15.9294 12.3204 15.9294 11.875C15.9294 11.4296 15.7524 11.0024 15.4375 10.6875L12.3658 7.61583C11.9205 7.17107 11.3169 6.92126 10.6875 6.92126C10.0581 6.92126 9.45448 7.17107 9.00916 7.61583L8.3125 8.3125C7.99755 8.62744 7.57039 8.80438 7.125 8.80438C6.6796 8.80438 6.25244 8.62744 5.9375 8.3125C5.62255 7.99756 5.44562 7.5704 5.44562 7.125C5.44562 6.6796 5.62255 6.25244 5.9375 5.9375L8.16208 3.71292C8.88427 2.99261 9.82608 2.53377 10.8384 2.40902C11.8508 2.28427 12.8758 2.50074 13.7512 3.02417L14.1233 3.24583C14.4604 3.44928 14.8612 3.51984 15.2475 3.44375L16.625 3.16667" stroke="white" stroke-width="1.5" stroke-linecap="round" stroke-linejoin="round"/>
<path d="M16.625 2.375L17.4167 11.0833H15.8333" stroke="white" stroke-width="1.5" stroke-linecap="round" stroke-linejoin="round"/>
<path d="M2.375 2.375L1.58334 11.0833L6.72917 16.2292C7.04411 16.5441 7.47127 16.721 7.91667 16.721C8.36207 16.721 8.78922 16.5441 9.10417 16.2292C9.41911 15.9142 9.59605 15.4871 9.59605 15.0417C9.59605 14.5963 9.41911 14.1691 9.10417 13.8542" stroke="white" stroke-width="1.5" stroke-linecap="round" stroke-linejoin="round"/>
<path d="M2.375 3.16667H8.70833" stroke="white" stroke-width="1.5" stroke-linecap="round" stroke-linejoin="round"/>
</svg>
