<svg width="19" height="19" viewBox="0 0 19 19" fill="none" xmlns="http://www.w3.org/2000/svg">
<path d="M16.7627 5.39284C17.1813 4.97438 17.4165 4.40679 17.4166 3.81493C17.4166 3.22307 17.1816 2.65542 16.7631 2.23686C16.3447 1.8183 15.7771 1.58311 15.1852 1.58304C14.5934 1.58296 14.0257 1.81801 13.6072 2.23647L3.04158 12.8044C2.85777 12.9877 2.72184 13.2133 2.64575 13.4615L1.59996 16.9068C1.5795 16.9753 1.57795 17.048 1.59549 17.1173C1.61302 17.1866 1.64898 17.2498 1.69955 17.3003C1.75012 17.3508 1.81341 17.3866 1.88271 17.4041C1.95201 17.4215 2.02473 17.4198 2.09317 17.3993L5.53929 16.3543C5.78722 16.2789 6.01285 16.1437 6.19638 15.9608L16.7627 5.39284Z" stroke="#939090" stroke-linecap="round" stroke-linejoin="round"/>
<path d="M11.875 3.95834L15.0417 7.12501" stroke="#939090" stroke-linecap="round" stroke-linejoin="round"/>
</svg>
